<svg id="Capa_1" enable-background="new 0 0 512 512" height="512" viewBox="0 0 512 512" width="512" xmlns="http://www.w3.org/2000/svg"><g><path d="m372.754 341v-147h-30v60.645h-28.677v-60.645h-30v90.645h58.677v56.355z"/><path d="m261.744 284.645v-89.47h-88v30h58v29.47h-58.678v89.468h88.199v-30h-58.199v-29.468z"/><path d="m100.123 256c0-91.327 74.3-165.627 165.626-165.627 32.112 0 63.661 9.485 90.445 26.969l-32.457 32.457 167.792 38.007-38.007-167.794-32.456 32.458c-44.373-33.928-98.999-52.47-155.317-52.47-68.38 0-132.667 26.629-181.019 74.98-48.352 48.353-74.981 112.64-74.981 181.02s26.629 132.667 74.981 181.02c48.352 48.351 112.639 74.98 181.019 74.98h15v-90.373h-15c-91.326 0-165.626-74.3-165.626-165.627z"/><path d="m303.03 458.511 5.469 29.498c9.412-1.745 18.811-4.088 27.936-6.965l-9.02-28.612c-7.964 2.51-16.169 4.556-24.385 6.079z"/><path d="m472.126 240.332 29.934-1.99c-.636-9.567-1.86-19.172-3.638-28.549l-29.475 5.588c1.553 8.192 2.622 16.587 3.179 24.951z"/><path d="m429.04 381.584 23.691 18.402c5.87-7.557 11.338-15.55 16.25-23.757l-25.74-15.408c-4.294 7.173-9.071 14.158-14.201 20.763z"/><path d="m472.294 265.506c-.443 8.363-1.399 16.771-2.841 24.988l29.549 5.184c1.649-9.402 2.742-19.02 3.249-28.584z"/><path d="m454.824 338.5 27.42 12.172c3.887-8.755 7.271-17.837 10.061-26.993l-28.697-8.742c-2.435 7.992-5.39 15.919-8.784 23.563z"/><path d="m393.692 417.261 18.619 23.523c7.494-5.932 14.707-12.385 21.439-19.179l-21.31-21.115c-5.886 5.942-12.194 11.584-18.748 16.771z"/><path d="m350.882 443.429 12.43 27.305c8.691-3.957 17.24-8.496 25.41-13.49l-15.648-25.596c-7.136 4.363-14.603 8.327-22.192 11.781z"/></g></svg>