<?xml version="1.0" encoding="iso-8859-1"?>
<!-- Generator: Adobe Illustrator 21.0.0, SVG Export Plug-In . SVG Version: 6.00 Build 0)  -->
<svg xmlns="http://www.w3.org/2000/svg" xmlns:xlink="http://www.w3.org/1999/xlink" version="1.1" id="Capa_1" x="0px" y="0px" viewBox="0 0 512 512" style="enable-background:new 0 0 512 512;" xml:space="preserve" width="512" height="512">
<g>
	<path style="fill:#FFFFFF;" d="M477.989,234.033h-13.551C456.734,125.747,366.19,40,256,40S55.266,125.747,47.563,234.033H34.011   C15.257,234.033,0,249.291,0,268.045v109.488c0,18.754,15.257,34.011,34.011,34.011h0.098c23.667,0,42.922-19.255,42.922-42.923   V249.014C77.031,150.305,157.316,70,256,70s178.969,80.305,178.969,179.014v93.53h-0.213c-26.031,0-47.209,21.181-47.209,47.216   c0,28.806-23.428,52.24-52.224,52.24h-26.508c-6.606-24.273-28.84-42.173-55.176-42.173h-16.363   c-19.898,0-36.086,16.188-36.086,36.087c0,19.897,16.188,36.086,36.086,36.086h98.047c45.338,0,82.224-36.893,82.224-82.24   c0-9.493,7.72-17.216,17.209-17.216h0.391c1.988,21.836,20.399,39,42.744,39h0.098c18.754,0,34.011-15.257,34.011-34.011V268.045   C512,249.291,496.743,234.033,477.989,234.033z"/>
	<path style="fill:#FFFFFF;" d="M245.263,323.965c0-8.284-6.716-15-15-15h-58.26c-1.841,0-3.339-1.5-3.339-3.345c0-14.687,11.944-26.636,26.626-26.636   c27.555,0,49.973-22.422,49.973-49.981s-22.417-49.98-49.973-49.98h-41.626c-8.284,0-15,6.716-15,15s6.716,15,15,15h41.626   c11.013,0,19.973,8.963,19.973,19.98s-8.96,19.981-19.973,19.981c-31.224,0-56.626,25.406-56.626,56.636   c0,18.387,14.956,33.345,33.339,33.345h58.26C238.547,338.965,245.263,332.249,245.263,323.965z"/>
	<path style="fill:#FFFFFF;" d="M281.737,179.022c-8.284,0-15,6.716-15,15v39.694c0,22.208,18.065,40.276,40.271,40.276h36.329v49.972   c0,8.284,6.716,15,15,15s15-6.716,15-15V194.022c0-8.284-6.716-15-15-15s-15,6.716-15,15v49.971h-36.329   c-5.663,0-10.271-4.61-10.271-10.276v-39.694C296.737,185.738,290.021,179.022,281.737,179.022z"/>
</g>















</svg>
